<svg xmlns="http://www.w3.org/2000/svg" viewBox="0 0 60 75" x="0px" y="0px">
    <path d="M13,60H47a3,3,0,0,0,3-3V51.829A3.006,3.006,0,0,0,52,49V3a3,3,0,0,0-3-3H13A5.006,5.006,0,0,0,8,5V55A5.006,5.006,0,0,0,13,60ZM50,3V49a1,1,0,0,1-1,1H14V2H49A1,1,0,0,1,50,3ZM10,5a3,3,0,0,1,2-2.816V50.112A4.974,4.974,0,0,0,10,51Zm3,47H48v5a1,1,0,0,1-1,1H13a3,3,0,0,1,0-6Z"/>
    <path d="M16,22c0,1.81,1.711,3.219,4.32,4.218C21.545,29.6,26.32,32,32,32s10.455-2.4,11.68-5.782C46.289,25.219,48,23.81,48,22c0-2.172-2.479-3.943-7-5.028V15a9,9,0,0,0-18,0v1.972C18.479,18.057,16,19.828,16,22Zm16,8c-3.681,0-7.049-1.186-8.777-2.914A40.242,40.242,0,0,0,32,28a40.242,40.242,0,0,0,8.777-.914C39.049,28.814,35.681,30,32,30ZM25,15a7,7,0,0,1,14,0v4.625C38.548,20,36.886,21,32,21c-4.969,0-6.6-1.033-7-1.354Zm-2,4.04V20a1,1,0,0,0,.105.447C23.318,20.873,24.749,23,32,23s8.682-2.127,8.9-2.553A1,1,0,0,0,41,20v-.96c3.414.895,5,2.121,5,2.96,0,1.631-5.454,4-14,4s-14-2.369-14-4C18,21.161,19.586,19.935,23,19.04Z"/>
    <path d="M37,56h5a1,1,0,0,0,0-2H37a1,1,0,0,0,0,2Z"/>
    <path d="M17,56H33a1,1,0,0,0,0-2H17a1,1,0,0,0,0,2Z"/>
    <path d="M33,11a1,1,0,0,0-1-1,5.006,5.006,0,0,0-5,5,1,1,0,0,0,2,0,3,3,0,0,1,3-3A1,1,0,0,0,33,11Z"/>
    <path d="M24,32a1,1,0,0,0-1,1v6a1,1,0,0,0,2,0V33A1,1,0,0,0,24,32Z"/>
    <path d="M28,34a1,1,0,0,0-1,1v7a1,1,0,0,0,2,0V35A1,1,0,0,0,28,34Z"/>
    <path d="M40,32a1,1,0,0,0-1,1v6a1,1,0,0,0,2,0V33A1,1,0,0,0,40,32Z"/>
    <path d="M36,34a1,1,0,0,0-1,1v7a1,1,0,0,0,2,0V35A1,1,0,0,0,36,34Z"/>
    <path d="M32,36a1,1,0,0,0-1,1v7a1,1,0,0,0,2,0V37A1,1,0,0,0,32,36Z"/>
</svg>
